<?xml version="1.0" encoding="UTF-8"?>
<svg width="1725px" height="1470px" viewBox="0 0 1725 1470" version="1.1" xmlns="http://www.w3.org/2000/svg" xmlns:xlink="http://www.w3.org/1999/xlink" style="background: #FFFFFF;">
    <!-- Generator: Sketch 49.1 (51147) - http://www.bohemiancoding.com/sketch -->
    <title>Artboard</title>
    <desc>Created with Sketch.</desc>
    <defs></defs>
    <g id="Artboard" stroke="none" stroke-width="1" fill="none" fill-rule="evenodd">
        <g id="Slipcover-Copy" transform="translate(31.000000, 44.000000)">
            <ellipse id="Oval" fill="#DE392E" cx="937" cy="697" rx="712" ry="697"></ellipse>
            <g id="Group" transform="translate(0.000000, 143.000000)">
                <path d="M137.617859,384.159487 C137.617859,384.159487 122.019637,192.487618 125.767212,169.386272 C129.507092,146.284926 352.560898,73.2307692 625.525936,73.2307692 C898.490975,73.2307692 1294.48728,146.284926 1298.23485,169.386272 C1301.97473,192.487618 1286.36882,384.159487 1286.36882,384.159487 L1382.4591,451.584616 C1382.4591,451.584616 1433.61695,477.180908 1422.38962,540.239882 C1408.16115,620.147439 1330.04691,613.917776 1330.04691,613.917776 C1310.0778,640.137804 1294.41033,939.076923 1286.92287,939.076923 L1205.58434,939.076923 L1204.63783,919.97211 L625.525936,919.97211 L219.348849,919.97211 L218.417727,939.076923 L137.079194,939.076923 C129.584044,939.076923 113.90887,640.137804 93.9551501,613.917776 C93.9551501,613.917776 15.8409162,620.147439 1.61244426,540.239882 C-9.62258495,477.180908 41.5352741,451.584616 41.5352741,451.584616 L137.617859,384.159487 Z" id="Fill-7" fill="#FFFFFF"></path>
                <path d="M188.958712,620.462805 C205.413079,594.197211 261.456667,520.401947 261.456667,520.401947 L1158.16179,520.401947 C1158.16179,520.401947 1214.20538,594.197211 1230.65975,620.462805 C1247.1064,646.728399 1255.97001,714.271766 1214.2131,723.024423 C1172.44847,731.777079 729.299131,733.027459 623.121024,733.027459 C516.942917,733.027459 247.169988,731.777079 205.405365,723.024423 C163.648456,714.271766 172.51206,646.728399 188.958712,620.462805" id="Fill-13" fill="#FFFFFF"></path>
                <path d="M93.9532959,616.530177 C113.914711,642.540163 129.589885,939.076923 137.07734,939.076923 L218.415873,939.076923 L219.346995,920.132792 C220.293508,901.188661 194.768445,541.677943 150.58246,486.541356 C106.404171,431.404768 41.5334199,455.497425 41.5334199,455.497425 C41.5334199,455.497425 -9.61674389,480.888671 1.61059009,543.442497 C15.839062,622.709936 93.9532959,616.530177 93.9532959,616.530177 Z M1422.38777,543.442497 C1408.15929,622.709936 1330.04506,616.530177 1330.04506,616.530177 C1310.08365,642.540163 1294.40847,939.076923 1286.92102,939.076923 L1205.58248,939.076923 L1204.64367,920.132792 C1203.70485,901.188661 1229.22991,541.677943 1273.4082,486.541356 C1317.59419,431.404768 1382.45724,455.497425 1382.45724,455.497425 C1382.45724,455.497425 1433.6228,480.888671 1422.38777,543.442497" id="Fill-9" stroke="#FFFFFF" fill="#000000"></path>
                <path d="M137.380846,387.663778 C137.380846,387.663778 243.19892,365.958216 264.081846,527.395728 C274.849245,610.64258 274.849245,620.708927 274.849245,620.708927 L623.631691,620.708927 L1144.76922,620.708927 C1144.76922,620.708927 1144.76922,610.64258 1155.53662,527.395728 C1176.41954,365.958216 1282.22995,387.663778 1282.22995,387.663778 L1377.99385,454.844371 C1377.99385,454.844371 1313.34344,430.64524 1269.3152,486.025496 C1225.2793,541.413424 1199.8486,902.505274 1200.78423,921.540798 L623.631691,921.540798 L623.624022,921.540798 L218.834228,921.540798 C219.777526,902.505274 194.331492,541.413424 150.303259,486.025496 C106.267357,430.64524 41.6246154,454.844371 41.6246154,454.844371 L137.380846,387.663778 Z" id="Fill-11" stroke="#FFFFFF" fill="#000000"></path>
                <path d="M205.406093,724.906326 C166.634358,716.534754 171.502039,655.921428 185.565086,625.618695 L1234.05278,625.618695 C1248.11583,655.921428 1252.98351,716.534754 1214.21949,724.906326 C1172.45463,733.930331 729.3028,735.219474 623.124097,735.219474 C516.937679,735.219474 247.170951,733.930331 205.406093,724.906326" id="Fill-15" fill="#FFFFFF"></path>
                <g id="Group-2" transform="translate(91.870968, 0.000000)">
                    <path d="M167.645334,209.040099 L162.761948,227.422482 C162.761948,227.422482 167.032997,231.507456 167.645334,237.227955 L172.735383,223.130188 L167.645334,209.040099 Z M3.35539301,369.974254 C7.69532948,359.124501 110.843449,209.861701 110.843449,209.861701 C110.843449,209.861701 114.104142,207.819214 118.987527,207.412252 C118.987527,207.412252 115.726834,191.479318 114.104142,188.208267 C112.473796,184.944895 114.509815,181.266883 115.328816,176.774947 C116.140162,172.283011 142.309902,150.115117 142.340519,150.084402 C129.022195,122.196008 116.576452,98.4386595 114.08118,93.332442 C105.072176,74.8809522 110.078028,63.2479905 129.481448,52.1985965 C166.703866,31.0289098 203.742583,0 203.742583,0 C206.972659,9.57511766 200.933488,24.7325212 200.933488,24.7325212 C210.723222,38.745825 280.851084,158.807204 279.289625,169.027318 C277.766438,179.285824 243.337806,188.976119 243.337806,188.976119 L256.625513,214.952561 L304.456664,222.523584 C304.456664,222.523584 390.574169,209.861701 400.34094,212.718111 C410.115365,215.5822 518.828094,349.964024 518.828094,349.964024 C518.828094,349.964024 610.027994,438.59721 614.919033,451.666055 C614.919033,451.666055 618.998727,463.920977 607.999628,470.056117 L619.603409,483.531924 C619.603409,483.531924 651.965404,482.917642 659.305791,483.531924 C666.630869,484.138527 680.07166,487.209936 680.07166,487.209936 C680.07166,487.209936 719.766387,484.752809 735.648871,487.209936 C751.531354,489.659385 763.739818,538.679073 751.531354,563.795521 C739.307583,588.911968 721.603397,582.177904 706.333251,577.88561 C691.05545,573.600994 639.144604,554.596651 639.144604,554.596651 C639.144604,554.596651 637.720922,617.506786 623.063111,657.534924 L667.044196,947.545044 C667.044196,947.545044 632.02619,971.164179 618.179726,972.838097 C618.179726,972.838097 622.251765,1000.64203 630.395844,1008.81198 C638.539922,1016.98192 695.540816,1072.53603 703.684894,1080.70598 C711.828973,1088.86825 708.56828,1104.39422 700.424201,1108.4792 C692.280123,1112.55649 650.93974,1123.67499 630.579545,1118.7761 C610.219349,1113.8772 582.679505,1085.19792 582.679505,1085.19792 L568.909583,1082.74847 C568.909583,1082.74847 547.539032,1072.32871 542.035656,1064.98037 C536.539934,1057.62434 539.900131,993.600822 544.178834,981.960182 L538.675458,980.731619 L502.539937,657.542603 L483.817742,631.397234 C483.817742,631.397234 290.816864,660.805975 232.185624,613.429491 C173.546729,566.045328 177.932591,525.257016 184.293238,512.55674 C190.646232,499.864142 229.736277,480.621764 229.736277,480.621764 L192.276578,403.068686 C192.276578,403.068686 178.437768,400.204597 158.888919,400.204597 C139.347723,400.204597 53.5593495,416.413958 34.5003692,412.989337 C7.6264416,408.167225 -7.03136852,395.98141 3.35539301,369.974254 Z" id="Fill-17" fill="#000000"></path>
                    <path d="M581.176053,491.076923 C581.66524,484.527714 581.720619,471.002793 575.241197,461.297453 C575.241197,461.297453 577.954802,482.091901 575.988823,490.489295 C577.714823,490.678853 579.450053,490.877888 581.176053,491.076923 M545.262334,487.153085 C545.151574,487.134129 545.040815,487.134129 544.948516,487.115173 C544.2655,482.376238 542.585649,467.789794 546.896034,464.320894 C552.046344,460.160108 553.892333,453.74359 553.892333,453.74359 C553.892333,453.74359 553.873873,463.941779 549.840387,468.481679 C546.563756,472.168571 545.539232,483.134467 545.262334,487.153085" id="Fill-19" fill="#AA2B00"></path>
                    <path d="M202.500411,18.6666667 C213.245652,32.8973346 290.209802,154.813222 288.504342,165.19966 C287.849041,169.277818 281.632092,173.270203 274.339779,176.615385 L175.129032,42.8237129 C192.553292,33.6926925 202.500411,18.6666667 202.500411,18.6666667" id="Fill-21" fill="#DE392E"></path>
                    <polygon id="Fill-23" fill="#BF2000" points="250.739598 186.666667 226.806452 190.355892 250.739598 235.279426 281.354839 241.230769 265.096178 212.347017"></polygon>
                    <path d="M173.289476,169.837022 C175.93977,169.615246 194.059808,183.902735 197.815085,186.39345 C201.570361,188.892694 202.675342,193.660877 202.675342,193.660877 C202.675342,193.660877 203.339993,190.479245 202.675342,188.440612 C202.010692,186.39345 180.359697,169.837022 176.16409,168.241941 C171.960175,166.65539 152.294824,168.241941 152.294824,168.241941 C152.294824,168.241941 170.639181,170.058798 173.289476,169.837022 M163.671595,160.431144 C169.659369,159.590097 181.192924,159.590097 187.397526,160.431144 C193.618806,161.26433 209.580645,167.536807 209.580645,167.536807 C209.580645,167.536807 196.837861,158.544684 190.516506,157.609315 C184.186811,156.666085 166.557068,156.037266 161.561697,157.609315 C156.574665,159.173504 143.48162,163.567382 143.48162,163.567382 C143.48162,163.567382 157.683821,161.26433 163.671595,160.431144 M146.223541,152.722455 C144.849699,153.391735 125.099668,174.393583 120.262077,182.119959 C117.939033,185.839124 126.2487,209.501149 126.2487,209.501149 L120.81994,211.076923 C120.81994,211.076923 117.272928,193.506196 115.507748,189.897166 C113.734242,186.296607 115.949043,182.238565 116.831633,177.282502 C117.714223,172.326439 146.190236,147.859583 146.223541,147.834167 C146.223541,147.834167 157.805452,143.589744 160.128495,143.589744 C162.451539,143.589744 179.062546,150.689198 178.729494,152.722455 C178.729494,152.722455 167.813689,150.350322 162.476518,149.67257 C157.139347,149.00329 147.589058,152.044703 146.223541,152.722455" id="Fill-25" fill="#BF2000"></path>
                    <path d="M111.656197,207.801592 C111.656197,207.801592 114.940791,205.745145 119.859972,205.335402 L124.887097,203.897436 C124.887097,203.897436 22.447855,359.344685 15.6781987,374.768033 C11.0751408,385.274464 12.1777158,397.767763 18.4076501,407.794872 C2.29309227,401.184865 -4.71558383,389.25593 3.38024665,369.016168 C7.7442848,358.084532 111.656197,207.801592 111.656197,207.801592" id="Fill-27" fill="#DE392E"></path>
                    <path d="M592.069694,489.516591 C592.069694,489.516591 613.656102,529.165809 617.258065,560 C617.258065,560 597.016051,510.560398 589.820582,502.739132 C589.820582,502.739132 330.293277,468.104726 212.451613,484.06931 C212.451613,484.06931 314.549489,454.514126 592.069694,489.516591" id="Fill-29" fill="#DE392E"></path>
                    <path d="M537.708446,449.435897 C537.708446,449.435897 534.932862,428.186152 544.048387,419.604819 C544.048387,419.604819 534.151531,424.506243 531.375946,432.273232 C531.375946,432.273232 460.126022,344.408684 454.187909,336.641695 C448.257236,328.874705 441.039228,311.358646 435.889886,295.425178 C430.740545,279.484028 415.89526,246.833479 401.935484,236.923077 C401.935484,236.923077 410.857537,239.473661 442.713508,338.278064 L537.708446,449.435897 Z" id="Fill-31" fill="#BF2000"></path>
                    <path d="M488.82752,577.230769 C488.82752,577.230769 489.433235,602.976133 495.475248,615.841134 C501.517261,628.713816 518.431869,649.958349 518.431869,649.958349 L562.709677,976.522005 C553.851087,978.38839 548.339075,977.735539 548.339075,977.735539 L542.902778,976.506644 L507.157987,653.230284 L488.630662,627.077849 C477.553639,594.803977 488.82752,577.230769 488.82752,577.230769" id="Fill-33" fill="#DE392E"></path>
                    <path d="M619.545148,1108.93217 C603.038846,1098.86573 587.108256,1082.13689 587.108256,1082.13689 L573.48052,1079.6912 C573.48052,1079.6912 552.330636,1069.29509 546.884086,1061.95035 C541.445112,1054.61328 544.770613,990.680286 549.005135,979.0575 C549.005135,979.0575 554.519861,979.71684 563.375238,977.846154 C563.375238,977.846154 563.807023,1020.55759 568.647559,1032.37971 C573.48052,1044.2095 582.752532,1057.2583 600.478437,1069.08809 C618.211918,1080.91788 623.052453,1096.81871 639.967815,1099.67074 C656.898327,1102.53044 687.115693,1099.2644 694.774194,1093.96668 C694.774194,1093.96668 669.397363,1109.87518 651.254823,1111.09419 C640.937437,1111.79186 630.097364,1111.29353 619.545148,1108.93217" id="Fill-35" fill="#DE392E"></path>
                    <path d="M655.569534,477.028245 C663.209498,477.735251 677.205466,481.261439 677.205466,481.261439 C677.205466,481.261439 718.563351,478.442256 735.11129,481.261439 C745.693996,483.064302 754.705645,506.828511 756.5,531.282051 C756.348477,530.893198 743.309498,497.460694 730.653315,494.314521 C717.925358,491.132998 680.698477,489.365485 677.205466,491.132998 C677.205466,491.132998 651.430556,485.141129 629.156631,485.494632 C611.898925,485.768596 584.943728,491.963729 573.675179,494.738724 C571.641577,490.178541 569.807348,486.369551 568.451613,483.621068 C568.475538,483.612231 598.293728,477.275697 614.203674,477.028245 C614.203674,477.028245 647.92957,476.330078 655.569534,477.028245" id="Fill-37" fill="#DE392E"></path>
                    <path d="M157.701927,48.1498344 C127.049814,65.8297937 115.691377,77.5421165 112.205512,87.5897436 C104.889112,71.3143712 110.450829,60.6573466 129.274501,50.5205394 C167.368348,30.0314062 205.274194,0 205.274194,0 C205.274194,0 200.205981,23.6401641 157.701927,48.1498344" id="Fill-39" fill="#DE392E"></path>
                    <path d="M181.056916,393.456227 C197.251199,391.918012 249.774194,478.181395 249.774194,478.181395 L223.272781,481.025641 L178.104112,407.742761 C178.104112,407.742761 161.420772,405.036373 137.862935,405.036373 C131.957328,405.036373 121.059637,406.001386 107.66129,407.38723 C107.66129,407.38723 164.853406,395.001698 181.056916,393.456227" id="Fill-41" fill="#DE392E"></path>
                </g>
            </g>
        </g>
    </g>
</svg>